<mxfile host="app.diagrams.net" agent="Mozilla/5.0 (Macintosh; Intel Mac OS X 10.15; rv:132.0) Gecko/20100101 Firefox/132.0" version="25.0.3" pages="2">
  <diagram name="Page-1" id="SbZpI5vLuQS5GnA2qj7T">
    <mxGraphModel dx="2074" dy="1182" grid="1" gridSize="10" guides="1" tooltips="1" connect="1" arrows="1" fold="1" page="1" pageScale="1" pageWidth="1100" pageHeight="850" math="0" shadow="0">
      <root>
        <mxCell id="0" />
        <mxCell id="1" parent="0" />
        <mxCell id="jZ7R7BvQrz0L8tp27N9r-1" value="&lt;font data-font-src=&quot;https://fonts.googleapis.com/css?family=Rubik&quot; face=&quot;Rubik&quot; style=&quot;font-size: 20px;&quot;&gt;Load Balancing and Connectivity &lt;/font&gt;" style="rounded=1;whiteSpace=wrap;html=1;" vertex="1" parent="1">
          <mxGeometry x="400" y="360" width="200" height="80" as="geometry" />
        </mxCell>
      </root>
    </mxGraphModel>
  </diagram>
  <diagram id="OwIxOx_S3h-VzzZVQqUQ" name="Azure Load Balancer">
    <mxGraphModel dx="2074" dy="1182" grid="1" gridSize="10" guides="1" tooltips="1" connect="1" arrows="1" fold="1" page="1" pageScale="1" pageWidth="1100" pageHeight="850" math="0" shadow="0">
      <root>
        <mxCell id="0" />
        <mxCell id="1" parent="0" />
        <mxCell id="5PPElF6QV49IbZEKUekK-3" value="" style="edgeStyle=orthogonalEdgeStyle;rounded=0;orthogonalLoop=1;jettySize=auto;html=1;" edge="1" parent="1" source="5PPElF6QV49IbZEKUekK-1" target="5PPElF6QV49IbZEKUekK-2">
          <mxGeometry relative="1" as="geometry" />
        </mxCell>
        <UserObject label="&lt;font style=&quot;font-size: 20px;&quot; face=&quot;Rubik&quot;&gt;Azure Load Balancer&lt;br&gt;&lt;/font&gt;" tooltip="Layer 4 Load Balancer : Focus on port and protocol." id="5PPElF6QV49IbZEKUekK-1">
          <mxCell style="rounded=1;whiteSpace=wrap;html=1;" vertex="1" parent="1">
            <mxGeometry x="440" y="360" width="200" height="80" as="geometry" />
          </mxCell>
        </UserObject>
        <mxCell id="5PPElF6QV49IbZEKUekK-2" value="" style="whiteSpace=wrap;html=1;rounded=1;" vertex="1" parent="1">
          <mxGeometry x="480" y="210" width="120" height="60" as="geometry" />
        </mxCell>
      </root>
    </mxGraphModel>
  </diagram>
</mxfile>
